<svg width="20" height="20" viewBox="0 0 20 20" fill="none" xmlns="http://www.w3.org/2000/svg">
<path d="M7.59402 1.94C7.68402 1.398 8.15402 1 8.70402 1H11.297C11.847 1 12.317 1.398 12.407 1.94L12.62 3.221C12.683 3.595 12.933 3.907 13.265 4.091C13.339 4.131 13.412 4.174 13.485 4.218C13.809 4.414 14.205 4.475 14.56 4.342L15.777 3.886C16.0264 3.79221 16.301 3.78998 16.5519 3.87971C16.8028 3.96945 17.0137 4.14531 17.147 4.376L18.443 6.623C18.5761 6.8537 18.623 7.12413 18.5754 7.38617C18.5278 7.6482 18.3887 7.88485 18.183 8.054L17.18 8.881C16.887 9.121 16.742 9.494 16.749 9.873C16.7506 9.95799 16.7506 10.043 16.749 10.128C16.742 10.506 16.887 10.878 17.179 11.118L18.184 11.946C18.608 12.296 18.718 12.9 18.444 13.376L17.146 15.623C17.0129 15.8536 16.8022 16.0296 16.5515 16.1195C16.3009 16.2094 16.0264 16.2074 15.777 16.114L14.56 15.658C14.205 15.525 13.81 15.586 13.484 15.782C13.4115 15.8261 13.3382 15.8688 13.264 15.91C12.933 16.093 12.683 16.405 12.62 16.779L12.407 18.059C12.317 18.602 11.847 19 11.297 19H8.70302C8.15302 19 7.68302 18.602 7.59302 18.06L7.38002 16.779C7.31802 16.405 7.06802 16.093 6.73602 15.909C6.66187 15.8681 6.58852 15.8258 6.51602 15.782C6.19102 15.586 5.79602 15.525 5.44002 15.658L4.22302 16.114C3.97375 16.2075 3.69939 16.2096 3.44872 16.1199C3.19806 16.0302 2.98733 15.8545 2.85402 15.624L1.55702 13.377C1.42397 13.1463 1.37707 12.8759 1.42468 12.6138C1.47229 12.3518 1.61131 12.1152 1.81702 11.946L2.82102 11.119C3.11302 10.879 3.25802 10.506 3.25102 10.127C3.24946 10.042 3.24946 9.95699 3.25102 9.872C3.25802 9.494 3.11302 9.122 2.82102 8.882L1.81702 8.054C1.61156 7.88489 1.4727 7.64843 1.42509 7.38662C1.37749 7.12481 1.42424 6.8546 1.55702 6.624L2.85402 4.377C2.98721 4.14614 3.19803 3.97006 3.44894 3.88014C3.69984 3.79021 3.97451 3.79229 4.22402 3.886L5.44002 4.342C5.79602 4.475 6.19102 4.414 6.51602 4.218C6.58802 4.174 6.66202 4.131 6.73602 4.09C7.06802 3.907 7.31802 3.595 7.38002 3.221L7.59402 1.94Z" stroke="#BEC2C7" stroke-width="1.5" stroke-linecap="round" stroke-linejoin="round"/>
</svg>
