<svg width="21" height="19" viewBox="0 0 21 19" fill="none" xmlns="http://www.w3.org/2000/svg">
<path d="M1 10.5625C1 9.976 1.532 9.5 2.1875 9.5H4.5625C5.218 9.5 5.75 9.976 5.75 10.5625V16.9375C5.75 17.524 5.218 18 4.5625 18H2.1875C1.87256 18 1.57051 17.8881 1.34781 17.6888C1.12511 17.4895 1 17.2193 1 16.9375V10.5625ZM8.125 6.3125C8.125 5.726 8.657 5.25 9.3125 5.25H11.6875C12.343 5.25 12.875 5.726 12.875 6.3125V16.9375C12.875 17.524 12.343 18 11.6875 18H9.3125C8.99756 18 8.69551 17.8881 8.47281 17.6888C8.25011 17.4895 8.125 17.2193 8.125 16.9375V6.3125ZM15.25 2.0625C15.25 1.476 15.782 1 16.4375 1H18.8125C19.468 1 20 1.476 20 2.0625V16.9375C20 17.524 19.468 18 18.8125 18H16.4375C16.1226 18 15.8205 17.8881 15.5978 17.6888C15.3751 17.4895 15.25 17.2193 15.25 16.9375V2.0625Z" stroke="black" stroke-width="1.5" stroke-linecap="round" stroke-linejoin="round"/>
<rect x="15" y="1" width="5" height="17" fill="black"/>
<rect x="8" y="6" width="5" height="12" fill="black"/>
<rect x="1" y="10" width="5" height="8" fill="black"/>
</svg>
